<svg width="34" height="34" viewBox="0 0 34 34" fill="none" xmlns="http://www.w3.org/2000/svg">
<g clip-path="url(#clip0_37_4653)">
<path d="M16.9649 33.9376C26.3365 33.9376 33.9337 26.3404 33.9337 16.9688C33.9337 7.59719 26.3365 0 16.9649 0C7.59329 0 -0.00390625 7.59719 -0.00390625 16.9688C-0.00390625 26.3404 7.59329 33.9376 16.9649 33.9376Z" fill="#334C8C"/>
<path d="M21.2651 15.3634L20.9838 17.7257C20.9717 17.8354 20.9193 17.9367 20.8368 18.0101C20.7544 18.0835 20.6476 18.1238 20.5373 18.1231H18.0812V25.1339C18.0818 25.2176 18.0493 25.2981 17.9908 25.358C17.9322 25.4178 17.8524 25.452 17.7687 25.4532H15.2658C15.2241 25.4526 15.183 25.4438 15.1448 25.4273C15.1065 25.4109 15.0719 25.387 15.0429 25.3572C15.0138 25.3273 14.991 25.292 14.9756 25.2533C14.9602 25.2147 14.9526 25.1733 14.9532 25.1317L14.9666 18.1231H13.1067C12.9883 18.1231 12.8747 18.0761 12.7909 17.9923C12.7072 17.9086 12.6602 17.795 12.6602 17.6766V15.3143C12.6602 15.1959 12.7072 15.0823 12.7909 14.9986C12.8747 14.9148 12.9883 14.8678 13.1067 14.8678H14.9554V12.577C14.9554 9.92672 16.5317 8.48438 18.8404 8.48438H20.7315C20.8499 8.48438 20.9635 8.53142 21.0473 8.61517C21.131 8.69891 21.1781 8.81249 21.1781 8.93092V10.9203C21.1781 11.0387 21.131 11.1523 21.0473 11.236C20.9635 11.3198 20.8499 11.3668 20.7315 11.3668H19.5727C18.3179 11.3869 18.0812 11.9875 18.0812 12.8851V14.8611H20.8297C20.8924 14.8621 20.9542 14.8764 21.011 14.903C21.0679 14.9295 21.1185 14.9677 21.1595 15.0151C21.2006 15.0625 21.2312 15.118 21.2494 15.178C21.2676 15.238 21.273 15.3012 21.2651 15.3634Z" fill="white"/>
</g>
<defs>
<clipPath id="clip0_37_4653">
<rect width="33.9376" height="33.9376" fill="white"/>
</clipPath>
</defs>
</svg>
