<svg width="34" height="34" viewBox="0 0 34 34" fill="none" xmlns="http://www.w3.org/2000/svg">
<g clip-path="url(#clip0_37_4658)">
<path d="M33.9415 16.9688C33.9415 7.59719 26.3443 0 16.9727 0C7.6011 0 0.00390625 7.59719 0.00390625 16.9688C0.00390625 26.3404 7.6011 33.9376 16.9727 33.9376C26.3443 33.9376 33.9415 26.3404 33.9415 16.9688Z" fill="url(#paint0_linear_37_4658)"/>
<path opacity="0.1" d="M29.7473 5.80517C27.2735 10.3466 23.7748 15.0308 19.4031 19.4025C15.0313 23.7742 10.3471 27.2662 5.81238 29.7401C5.52807 29.493 5.25196 29.2355 4.98403 28.9676C3.36453 27.4022 2.07289 25.53 1.18444 23.4602C0.295982 21.3904 -0.171512 19.1644 -0.190785 16.9121C-0.210058 14.6598 0.219275 12.4261 1.07218 10.3414C1.92508 8.25676 3.18449 6.36274 4.77697 4.76982C6.36944 3.1769 8.26312 1.91696 10.3476 1.06348C12.432 0.209989 14.6655 -0.219967 16.9179 -0.201323C19.1702 -0.182678 21.3963 0.284194 23.4663 1.17207C25.5364 2.05995 27.4089 3.35106 28.9748 4.97013C29.2427 5.23805 29.5002 5.5164 29.7473 5.80517Z" fill="white"/>
<path d="M20.9928 8.03784H12.955C11.6522 8.03784 10.4028 8.55536 9.48167 9.47654C8.56048 10.3977 8.04297 11.6471 8.04297 12.9499V20.9877C8.04297 22.2905 8.56048 23.5399 9.48167 24.461C10.4028 25.3822 11.6522 25.8997 12.955 25.8997H20.9928C22.2956 25.8997 23.545 25.3822 24.4662 24.461C25.3874 23.5399 25.9049 22.2905 25.9049 20.9877V12.9499C25.9049 11.6471 25.3874 10.3977 24.4662 9.47654C23.545 8.55536 22.2956 8.03784 20.9928 8.03784ZM24.342 20.2822C24.342 21.3575 23.9148 22.3889 23.1544 23.1492C22.394 23.9096 21.3627 24.3368 20.2873 24.3368H13.6605C12.5852 24.3368 11.5539 23.9096 10.7935 23.1492C10.0331 22.3889 9.60589 21.3575 9.60589 20.2822V13.6554C9.60589 12.58 10.0331 11.5487 10.7935 10.7883C11.5539 10.0279 12.5852 9.60076 13.6605 9.60076H20.2873C21.3627 9.60076 22.394 10.0279 23.1544 10.7883C23.9148 11.5487 24.342 12.58 24.342 13.6554V20.2822Z" fill="white"/>
<path d="M20.2299 13.7448L20.1875 13.7023L20.1517 13.6666C19.3075 12.8253 18.1641 12.3532 16.9723 12.3538C16.3705 12.3579 15.7753 12.4805 15.2209 12.7147C14.6664 12.9488 14.1636 13.29 13.741 13.7185C13.3184 14.1471 12.9844 14.6548 12.7581 15.2125C12.5318 15.7702 12.4176 16.367 12.422 16.9688C12.4211 18.1903 12.9026 19.3626 13.7616 20.2309C14.1824 20.6568 14.6839 20.9946 15.2367 21.2246C15.7894 21.4546 16.3825 21.5722 16.9812 21.5705C17.8793 21.5517 18.7525 21.2719 19.4944 20.7653C20.2362 20.2587 20.8146 19.5472 21.159 18.7176C21.5034 17.888 21.5989 16.976 21.4339 16.093C21.269 15.21 20.8506 14.3941 20.2299 13.7448ZM16.9723 19.9964C16.3718 20.0048 15.7823 19.8345 15.2789 19.5069C14.7754 19.1794 14.3808 18.7096 14.1451 18.1571C13.9095 17.6047 13.8434 16.9947 13.9554 16.4046C14.0674 15.8145 14.3523 15.2711 14.774 14.8435C15.1957 14.4158 15.735 14.1232 16.3235 14.0029C16.9119 13.8826 17.5228 13.94 18.0785 14.1679C18.6342 14.3957 19.1096 14.7837 19.4442 15.2825C19.7787 15.7812 19.9574 16.3682 19.9575 16.9688C19.9604 17.3637 19.8855 17.7552 19.7371 18.1211C19.5886 18.487 19.3695 18.8201 19.0923 19.1012C18.8151 19.3824 18.4851 19.6062 18.1214 19.7598C17.7576 19.9134 17.3672 19.9938 16.9723 19.9964Z" fill="white"/>
<path d="M22.8742 12.1416C22.8754 12.2849 22.8483 12.427 22.7945 12.5598C22.7407 12.6926 22.6612 12.8135 22.5606 12.9155C22.46 13.0175 22.3403 13.0987 22.2083 13.1544C22.0763 13.2102 21.9346 13.2393 21.7913 13.2402C21.6492 13.2401 21.5086 13.2118 21.3775 13.157C21.2464 13.1022 21.1275 13.022 21.0277 12.9209C20.8765 12.7674 20.7736 12.5729 20.7318 12.3615C20.69 12.1501 20.7113 11.9311 20.7928 11.7317C20.8743 11.5322 21.0126 11.3611 21.1905 11.2395C21.3684 11.1179 21.5781 11.0512 21.7935 11.0476C22.0457 11.0476 22.2899 11.1361 22.4835 11.2977L22.5058 11.32C22.5418 11.3493 22.5747 11.3822 22.604 11.4182L22.6286 11.445C22.7884 11.6419 22.8752 11.8881 22.8742 12.1416Z" fill="white"/>
</g>
<defs>
<linearGradient id="paint0_linear_37_4658" x1="4.97398" y1="4.97007" x2="28.9714" y2="28.9675" gradientUnits="userSpaceOnUse">
<stop stop-color="#FAE100"/>
<stop offset="0.15" stop-color="#FCB720"/>
<stop offset="0.3" stop-color="#FF7950"/>
<stop offset="0.5" stop-color="#FF1C74"/>
<stop offset="1" stop-color="#6C1CD1"/>
</linearGradient>
<clipPath id="clip0_37_4658">
<rect width="33.9376" height="33.9376" fill="white"/>
</clipPath>
</defs>
</svg>
