<svg width="34" height="34" viewBox="0 0 34 34" fill="none" xmlns="http://www.w3.org/2000/svg">
<g clip-path="url(#clip0_37_4531)">
<path d="M16.9688 33.9376C26.3404 33.9376 33.9376 26.3404 33.9376 16.9688C33.9376 7.59719 26.3404 0 16.9688 0C7.59719 0 0 7.59719 0 16.9688C0 26.3404 7.59719 33.9376 16.9688 33.9376Z" fill="#00A6DE"/>
<path d="M25.4191 11.8336C25.018 12.4361 24.528 12.9743 23.9656 13.43C23.8947 13.4891 23.8379 13.5632 23.7993 13.647C23.7606 13.7308 23.7412 13.8222 23.7423 13.9145V13.9703C23.7358 15.1803 23.5135 16.3795 23.0859 17.5114C22.6453 18.6995 21.9907 19.7968 21.1546 20.7489C20.031 22.028 18.5855 22.9832 16.9682 23.5153C15.9055 23.8602 14.7944 24.0328 13.6772 24.0266C11.9047 24.0263 10.1638 23.5572 8.63117 22.6668C8.57625 22.6356 8.53302 22.5873 8.50804 22.5293C8.48305 22.4713 8.47768 22.4067 8.49274 22.3453C8.5082 22.2849 8.54341 22.2315 8.59278 22.1934C8.64214 22.1554 8.70282 22.135 8.76514 22.1354H9.18936C10.5364 22.1387 11.8536 21.7391 12.9716 20.9878C12.3053 20.8799 11.6817 20.5902 11.1696 20.1505C10.6574 19.7109 10.2766 19.1383 10.0691 18.4961C10.0584 18.4639 10.0565 18.4295 10.0635 18.3963C10.0704 18.3632 10.086 18.3325 10.1087 18.3073C10.1314 18.2821 10.1603 18.2634 10.1926 18.253C10.2248 18.2427 10.2592 18.241 10.2923 18.2482C10.4955 18.2865 10.7018 18.3059 10.9086 18.3063H10.9867C10.3427 18.0104 9.79825 17.5344 9.41905 16.9357C9.03986 16.337 8.84221 15.6413 8.84998 14.9326C8.85021 14.8995 8.85902 14.8669 8.87556 14.8382C8.8921 14.8094 8.9158 14.7855 8.94435 14.7686C8.9729 14.7517 9.00534 14.7426 9.03849 14.742C9.07164 14.7414 9.10439 14.7493 9.13354 14.7652C9.39547 14.9114 9.67653 15.0204 9.96858 15.0889C9.39131 14.5178 9.02 13.7711 8.91291 12.9662C8.80583 12.1612 8.96903 11.3435 9.37691 10.6413C9.39234 10.6143 9.41408 10.5915 9.44028 10.5748C9.46647 10.5581 9.49633 10.548 9.52729 10.5453C9.55825 10.5427 9.58938 10.5476 9.61803 10.5597C9.64667 10.5717 9.67196 10.5905 9.69172 10.6145C10.4981 11.613 11.4969 12.4393 12.6287 13.0446C13.7605 13.6498 15.0023 14.0215 16.2805 14.1378H16.2984C16.3172 14.1372 16.3356 14.1329 16.3527 14.1249C16.3697 14.117 16.385 14.1057 16.3975 14.0917C16.41 14.0777 16.4196 14.0613 16.4256 14.0435C16.4316 14.0257 16.4339 14.0069 16.4324 13.9882C16.3825 13.5401 16.4112 13.0867 16.5172 12.6485C16.6613 12.0529 16.957 11.5046 17.3756 11.057C17.7942 10.6094 18.3215 10.2778 18.9062 10.0943C19.2814 9.97708 19.672 9.91687 20.065 9.91565C20.9562 9.91462 21.817 10.2394 22.4853 10.8288C22.5719 10.9063 22.6839 10.9492 22.8001 10.9494C22.8378 10.9486 22.8753 10.9434 22.9118 10.9338C23.5398 10.7751 24.1414 10.5262 24.698 10.1947C24.7313 10.1742 24.7701 10.1645 24.8092 10.1668C24.8482 10.1692 24.8856 10.1836 24.9161 10.2081C24.9467 10.2325 24.969 10.2658 24.9799 10.3034C24.9908 10.341 24.9898 10.381 24.977 10.418C24.7912 11.0025 24.4601 11.5303 24.0147 11.9519C24.416 11.8562 24.8076 11.724 25.1847 11.5567C25.2219 11.5423 25.2627 11.5399 25.3013 11.5498C25.34 11.5597 25.3746 11.5813 25.4004 11.6118C25.4262 11.6422 25.4418 11.6799 25.4452 11.7197C25.4485 11.7594 25.4394 11.7992 25.4191 11.8336Z" fill="white"/>
</g>
<defs>
<clipPath id="clip0_37_4531">
<rect width="33.9376" height="33.9376" fill="white"/>
</clipPath>
</defs>
</svg>
